<svg style="display: none;">
    <symbol viewBox="0 0 24 12" id="arrow" fill="none" xmlns="http://www.w3.org/2000/svg">
      <path stroke="#000" stroke-width="2" d="M0 6h18" />
      <path d="m24 6-6.75 5.2V.8L24 6Z" fill="#000" />
    </symbol>
    <symbol viewBox="0 0 31 32" id="contains" fill="none" xmlns="http://www.w3.org/2000/svg">
       <g clip-path="url(#a)">
           <path
          d="M28.34 2.77a.95.95 0 0 0-.9-.77h-.01c-4.94.03-16.95.92-21.8 8.38C3.12 14.26 2.9 19.29 5 25.34l.07.13a25.93 25.93 0 0 0-1.04 3.32c-.11.54.21 1.07.72 1.19l.2.02c.43 0 .81-.32.9-.79.03-.1 2.42-10.37 10.86-16.38.43-.3.55-.93.26-1.38a.9.9 0 0 0-1.3-.28c-4.79 3.4-7.74 8-9.47 11.65-1.24-4.57-.92-8.37.99-11.3 3.74-5.76 12.62-7.15 17.98-7.45C24 5.87 22.75 9.17 22.75 15c0 3.12-.83 5.52-2.47 7.14-2.62 2.6-6.88 2.83-10 2.58-.51-.04-.96.38-1 .93-.04.55.35 1.03.86 1.07.63.05 1.3.08 1.98.08 3.18 0 6.87-.66 9.43-3.2 2.04-2 3.07-4.9 3.07-8.6 0-9.1 3.22-11.1 3.23-11.1.4-.21.6-.68.5-1.13Z"
          fill="#fff" />
       </g>
      <defs>
        <clipPath id="a">
          <path fill="#fff" transform="translate(.5)" d="M0 0h30v32H0z" />
        </clipPath>
      </defs>
    </symbol>
  <symbol viewBox="0 0 30 31" id="sort" fill="none" xmlns="http://www.w3.org/2000/svg">
              <g clip-path="url(#a)" fill="#fff">
                <path
                  d="M21.28 18.47c-1.71 0-3.1 1.48-3.1 3.3 0 1.83 1.4 3.3 3.1 3.3 1.7 0 3.08-1.47 3.08-3.3 0-1.82-1.38-3.3-3.08-3.3Zm0 5.02c-.89 0-1.6-.77-1.6-1.71 0-.95.71-1.72 1.6-1.72.88 0 1.6.77 1.6 1.72 0 .94-.72 1.7-1.6 1.7ZM12.1-.01c-1.75 0-3.18 1.52-3.18 3.4 0 1.89 1.43 3.41 3.19 3.41s3.18-1.52 3.18-3.4c0-1.89-1.42-3.41-3.18-3.41Zm0 5.48c-1.06 0-1.93-.93-1.93-2.07 0-1.15.87-2.07 1.94-2.07 1.07 0 1.93.92 1.93 2.07 0 1.14-.86 2.07-1.93 2.07ZM8.73 17.61c-1.3 0-2.34 1.12-2.34 2.5 0 1.39 1.04 2.5 2.34 2.5 1.3 0 2.34-1.11 2.34-2.5 0-1.38-1.05-2.5-2.34-2.5ZM8.5 19.5c-.46 0 1.16 1.1 1.16.61 0-.49-1.62.39-1.16.39.46 0 1.06-.88 1.06-.39 0 .5-.6-.61-1.06-.61ZM19 9.76s3.04-.84 6.18 1.5c.9.76 1.76 1.33 1.15 2.12-.34.34-.64.66-1.72-.53A6.92 6.92 0 0 0 19 11.41c-1.13.24-1.96.55-3.56 2.15a8.27 8.27 0 0 1-6.5 2.5c-2.52-.24-3.84-1.27-5.24-2.55-.3-.42-.3-.87-.12-1.13.17-.26.83-.52 1.2-.13.37.4 2.1 1.97 3.82 2.07 1.72.1 3.44.21 5.74-1.96 2.3-2.18 3.46-2.34 4.66-2.6Z" />
                <mask id="b">
                  <path
                    d="M29.15 26.82V8.16c0-.58-.38-.65-.53-.66h-.5c-.5 0-.54.56-.54.74V26.84a2.68 2.68 0 0 1-.82 1.89c-.81.7-1.62.6-1.62.6s-20.18 0-20.66-.03a2.3 2.3 0 0 1-1.6-1c-.57-.8-.46-1.85-.46-1.85V8.3c0-.83-.67-.8-.67-.8h-.3c-.54 0-.6.58-.6.77v18.54c0 1.33.46 2.4 1.55 3.33 1.1.94 2.38.86 2.38.86h20.58c.86 0 1.98-.42 2.91-1.56.93-1.14.88-2.63.88-2.63Z" />
                </mask>
                <path
                  d="M29.15 26.82V8.16c0-.58-.38-.65-.53-.66h-.5c-.5 0-.54.56-.54.74V26.84a2.68 2.68 0 0 1-.82 1.89c-.81.7-1.62.6-1.62.6s-20.18 0-20.66-.03a2.3 2.3 0 0 1-1.6-1c-.57-.8-.46-1.85-.46-1.85V8.3c0-.83-.67-.8-.67-.8h-.3c-.54 0-.6.58-.6.77v18.54c0 1.33.46 2.4 1.55 3.33 1.1.94 2.38.86 2.38.86h20.58c.86 0 1.98-.42 2.91-1.56.93-1.14.88-2.63.88-2.63Z" />
              </g>
              <defs>
                <clipPath id="a">
                  <path fill="#fff" transform="translate(.5)" d="M0 0h29v31H0z" />
                </clipPath>
              </defs>
            </symbol>
    <symbol viewBox="0 0 26 30" id="portion" fill="none" xmlns="http://www.w3.org/2000/svg">
      <path fill-rule="evenodd" clip-rule="evenodd"
        d="M19.12.08a1 1 0 0 1 1.09.21c.9.91 2.1 2.88 3.06 5.92A42.6 42.6 0 0 1 25 19a1 1 0 0 1-1 1h-3.5v9a1 1 0 1 1-2 0V1a1 1 0 0 1 .62-.92ZM20.5 18H23a39.62 39.62 0 0 0-1.64-11.19 22.4 22.4 0 0 0-.86-2.3V18ZM6.5 0a1 1 0 0 1 1 1v28a1 1 0 1 1-2 0V1a1 1 0 0 1 1-1Z"
        fill="#fff" />
      <path fill-rule="evenodd" clip-rule="evenodd"
        d="M2 0a1 1 0 0 1 1 1v5.5c0 .56.2 1.32.7 1.92.48.56 1.31 1.08 2.8 1.08a1 1 0 1 1 0 2 5.41 5.41 0 0 1-4.33-1.8A5.07 5.07 0 0 1 1 6.5V1a1 1 0 0 1 1-1Z"
        fill="#fff" />
      <path fill-rule="evenodd" clip-rule="evenodd"
        d="M11 0a1 1 0 0 0-1 1v5.5c0 .56-.2 1.32-.7 1.92-.48.56-1.31 1.08-2.8 1.08a1 1 0 0 0 0 2c2.01 0 3.43-.73 4.33-1.8A5.07 5.07 0 0 0 12 6.5V1a1 1 0 0 0-1-1Z"
        fill="#fff" />
    </symbol>
    <symbol viewBox="0 0 33 33" id="time" fill="none" xmlns="http://www.w3.org/2000/svg">
      <circle cx="21.7" cy="11.33" fill="#fff" r="1.09" />
      <circle cx="10.83" cy="11.33" fill="#fff" r="1.09" />
      <circle cx="10.83" cy="24.35" fill="#fff" r="1.09" />
      <circle cx="16.27" cy="26.52" fill="#fff" r="1.09" />
      <circle cx="7.57" cy="17.77" fill="#fff" r="1.09" />
      <circle cx="24.97" cy="17.77" fill="#fff" r="1.09" />
      <circle cx="21.7" cy="24.35" fill="#fff" r="1.09" />
      <mask id="a" fill="#fff">
        <path fill-rule="evenodd" clip-rule="evenodd"
        d="M21.42 29.06c.41-.2.9-.13 1.22.2l1.82 1.87a.68.68 0 0 0 .98-.95l-1.36-1.4c-.42-.43-.36-1.14.1-1.55a12.75 12.75 0 0 0 4.32-9.62C28.5 10.65 23.02 5 16.27 5 9.5 5 4.04 10.65 4.04 17.61c0 3.82 1.64 7.24 4.23 9.55.45.4.51 1.11.1 1.55l-1.44 1.47a.68.68 0 1 0 .97.95l1.88-1.93c.32-.33.82-.4 1.23-.2a11.88 11.88 0 0 0 10.41.06Zm-5.15-.23c6 0 10.87-5.02 10.87-11.22 0-6.19-4.87-11.2-10.87-11.2-6 0-10.88 5.01-10.88 11.2 0 6.2 4.87 11.22 10.88 11.22ZM15.5 17.3V9.94a.78.78 0 1 1 1.56 0v8.18a.8.8 0 0 1-.8.8.76.76 0 0 1-.76-.75V17.3Z" />
      </mask>
      <path fill-rule="evenodd" clip-rule="evenodd"
        d="M21.42 29.06c.41-.2.9-.13 1.22.2l1.82 1.87a.68.68 0 0 0 .98-.95l-1.36-1.4c-.42-.43-.36-1.14.1-1.55a12.75 12.75 0 0 0 4.32-9.62C28.5 10.65 23.02 5 16.27 5 9.5 5 4.04 10.65 4.04 17.61c0 3.82 1.64 7.24 4.23 9.55.45.4.51 1.11.1 1.55l-1.44 1.47a.68.68 0 1 0 .97.95l1.88-1.93c.32-.33.82-.4 1.23-.2a11.88 11.88 0 0 0 10.41.06Zm-5.15-.23c6 0 10.87-5.02 10.87-11.22 0-6.19-4.87-11.2-10.87-11.2-6 0-10.88 5.01-10.88 11.2 0 6.2 4.87 11.22 10.88 11.22ZM15.5 17.3V9.94a.78.78 0 1 1 1.56 0v8.18a.8.8 0 0 1-.8.8.76.76 0 0 1-.76-.75V17.3Z"
        fill="#fff" />
      <path fill="#fff" d="M15.5 6V2H17v4z" />
      <rect x="8.5" y="2" width="15.5" height="1.5" rx=".75" fill="#fff" />
    </symbol>
    <symbol viewBox="0 0 27 17" id="social-vk" xmlns="http://www.w3.org/2000/svg">
       <path
      d="M0 2.34C0 1.48.52 1.02 1.55.96l3.97.02c.26 0 .44.13.53.38.4 1.26.86 2.34 1.37 3.25.5.92 1.17 1.97 1.99 3.16.07.15.18.23.34.23.13 0 .22-.06.3-.18l.07-.28.03-4.35c0-.3-.07-.5-.23-.6-.15-.1-.43-.18-.83-.23-.32-.05-.48-.23-.48-.55 0-.07 0-.12.02-.15C9.01.57 10.07.03 11.83.03l1.5-.03C14 0 14.55.16 15 .48c.44.32.67.82.67 1.5V7.7c.12.08.24.12.34.12.27 0 .5-.15.7-.45 1.95-2.58 3-4.31 3.17-5.18 0-.02.01-.06.05-.13.12-.25.33-.47.61-.65.29-.19.53-.31.75-.38a.55.55 0 0 1 .24-.05h4.13l.26.03c.36 0 .63.16.83.47.07.1.12.21.15.33a2.4 2.4 0 0 1 .06.55v.18a6.11 6.11 0 0 1-.94 2.2c-.5.78-1.15 1.62-1.93 2.53-.79.9-1.27 1.5-1.47 1.78-.16.2-.24.39-.24.56 0 .13.07.28.21.45l3.9 4.63c.2.26.31.56.31.88 0 .38-.16.7-.48.95-.32.25-.7.4-1.14.43l-.46.02h-4.04c-.02 0-.06 0-.11.02a.86.86 0 0 1-.1.01c-.4 0-.76-.16-1.1-.48-.12-.13-.96-1.12-2.5-2.97a1.39 1.39 0 0 0-.38-.32 38.47 38.47 0 0 0-.53 2.24l-.08.42a1.4 1.4 0 0 1-1.12 1.06l-.37.02h-2.61c-1.48 0-2.95-.63-4.41-1.9a19.3 19.3 0 0 1-3.96-4.95A47.51 47.51 0 0 1 .13 3.07 1.92 1.92 0 0 1 0 2.34Zm16.01 6.51c-.37 0-.7-.1-1.01-.29a.9.9 0 0 1-.45-.79V2c0-.34-.1-.58-.27-.72-.18-.14-.49-.21-.93-.21l-1.52.05c-.76 0-1.34.12-1.73.37.78.36 1.17.93 1.17 1.71v4.43a1.5 1.5 0 0 1-.53 1.04c-.32.28-.68.42-1.07.42-.53 0-.94-.24-1.22-.73a26.16 26.16 0 0 1-3.1-5.63l-.23-.66-3.55-.02c-.23 0-.36.01-.38.03-.03.03-.04.1-.04.22 0 .15.01.3.05.48l.56 1.4c1.49 3.64 3.11 6.51 4.86 8.6 1.75 2.1 3.47 3.15 5.16 3.15h2.66c.1 0 .19-.03.24-.09.05-.06.1-.17.13-.34l.06-.25.5-2.21c.15-.3.27-.5.38-.6.2-.2.42-.28.69-.28.43 0 .86.24 1.3.73l2.27 2.71c.14.22.3.33.45.33h4.4c.53 0 .8-.13.8-.38a.47.47 0 0 0-.08-.25l-3.87-4.55c-.3-.35-.45-.73-.45-1.13 0-.4.14-.8.43-1.16.23-.34.68-.9 1.34-1.67.67-.78 1.25-1.51 1.75-2.19.5-.68.82-1.3.98-1.85l.08-.33a.37.37 0 0 1-.02-.16c0-.07-.01-.14-.03-.19h-4.18c-.27.1-.48.25-.64.45L20.8 3c-.45 1.16-1.6 2.94-3.5 5.36-.36.33-.8.5-1.3.5Z" />
    </symbol>
    <symbol viewBox="0 0 24 19" id="social-youtube" xmlns="http://www.w3.org/2000/svg">
      <path
        d="m15.85 8.8-5.24-3.5a.65.65 0 0 0-1.01.55v6.98a.65.65 0 0 0 1.01.54l5.24-3.49a.65.65 0 0 0 0-1.09Zm-4.94 2.8V7.08l3.4 2.27-3.4 2.27Zm12.48-8.56a2.4 2.4 0 0 0-1.45-1.63C18.22-.02 12.25 0 12 0S5.78-.02 2.06 1.4A2.4 2.4 0 0 0 .61 3.05 25.32 25.32 0 0 0 0 9.34c0 3.26.33 5.22.61 6.3a2.4 2.4 0 0 0 1.45 1.63c3.72 1.43 9.69 1.4 9.94 1.4h.08c.75 0 6.31-.04 9.86-1.4a2.4 2.4 0 0 0 1.45-1.64c.28-1.07.61-3.03.61-6.3 0-3.25-.33-5.22-.61-6.29Zm-1.27 12.27a1.1 1.1 0 0 1-.65.74c-3.5 1.34-9.4 1.32-9.47 1.32-.07 0-5.98.02-9.47-1.32a1.09 1.09 0 0 1-.65-.74c-.27-1-.57-2.85-.57-5.97 0-3.12.3-4.97.57-5.97a1.1 1.1 0 0 1 .65-.74C6.03 1.29 11.93 1.3 12 1.3c.07 0 5.98-.02 9.47 1.32a1.1 1.1 0 0 1 .65.74c.27 1 .57 2.85.57 5.97 0 3.12-.3 4.96-.57 5.97Z" />
    </symbol>
    <symbol viewBox="0 0 20 18" id="social-telegram" xmlns="http://www.w3.org/2000/svg">
      <path fill-rule="evenodd" clip-rule="evenodd"
          d="M19.46.15c.18.15.27.38.23.61l-2.63 15.76a.66.66 0 0 1-1.01.44l-7.88-5.25a.66.66 0 0 1-.15-.96l2.61-3.26-4.36 2.9a.66.66 0 0 1-.65.05L.36 7.8a.66.66 0 0 1 .08-1.2L18.82.03a.66.66 0 0 1 .64.11ZM2.33 7.32 5.86 9.1l7.56-5.04a.66.66 0 0 1 .88.96l-4.8 6 6.43 4.3 2.28-13.66L2.33 7.32Z" />
    </symbol>
    <symbol viewBox="0 0 27 34" id="copyright-icon" xmlns="http://www.w3.org/2000/svg">
      <path
        d="M13.64.02 13.5 0 0 1.4v24.61L13.5 34 27 26.01V1.41L13.64 0Zm11.6 25L13.5 31.96 1.77 25.02v-10.1l11.68 6.93.02 1.25-8.02-4.75v1.23l8.04 4.8.02 1.3-8.05-4.76v1.22l8.04 4.81 8.12-4.83V16.9l3.62-2.15v10.26Zm0-11.57L22 15.33l-1.48.88-7.06-4.19-.01 1.23 6.04 3.57-.06.03-.13.07-.86.5-4.98-2.95-.01 1.22 3.93 2.33-.93.61-.02.01-2.97-1.74-.01 1.23 1.94 1.13-1.98 1.19L1.8 13.58l11.63-6.96 11.8 6.83Zm0-1.22L13.43 5.3 1.77 12.22V2.99L13.5 1.76 25.23 3v9.24Z" />
    </symbol>
    <symbol viewBox="0 0 80 83" id="cover-icon" fill="none" xmlns="http://www.w3.org/2000/svg">
      <path
        d="M65.66 35.83H14.39a3.27 3.27 0 0 1-3.26-3.26v-9.78c0-1.8 1.46-3.26 3.26-3.26h51.27c1.8 0 3.26 1.47 3.26 3.26v9.78c0 1.8-1.46 3.26-3.26 3.26Zm-51.27-13.8a.77.77 0 0 0-.76.76v9.78c0 .42.34.76.76.76h51.27c.42 0 .76-.34.76-.76v-9.78a.77.77 0 0 0-.76-.76H14.39Z"
        fill="#fff" />
      <path
        d="M58.5 69.3H21.55a6.29 6.29 0 0 1-6.28-6.27V34.58a1.25 1.25 0 0 1 2.5 0v28.45c0 2.08 1.7 3.78 3.78 3.78H58.5c2.08 0 3.78-1.7 3.78-3.78V34.58a1.25 1.25 0 0 1 2.5 0v28.45a6.29 6.29 0 0 1-6.28 6.28Z"
        fill="#fff" />
      <path
        d="M40.02 69.3c-.69 0-1.25-.55-1.25-1.24V34.58a1.25 1.25 0 0 1 2.5 0v33.48c0 .69-.56 1.25-1.25 1.25ZM24.42 22.03a8.08 8.08 0 0 1 7.69-14.2c5.96 3.23 9.18 12.24 9.31 12.62l-2.36.83c-.03-.08-3.03-8.48-8.14-11.25a5.58 5.58 0 0 0-5.3 9.8l-1.2 2.2Z"
        fill="#fff" />
      <path
        d="m55.62 22.03-1.19-2.2a5.54 5.54 0 0 0 2.25-7.55 5.53 5.53 0 0 0-7.55-2.25c-5.1 2.77-8.12 11.17-8.15 11.25l-2.36-.83c.14-.38 3.36-9.39 9.32-12.62a8.02 8.02 0 0 1 6.14-.64c2.07.62 3.77 2 4.8 3.9a8.01 8.01 0 0 1 .64 6.14 8.03 8.03 0 0 1-3.9 4.8ZM63.54 52.57H16.5a1.25 1.25 0 0 1 0-2.5h47.03a1.25 1.25 0 0 1 0 2.5Z"
        fill="#fff" />
    </symbol>
    <symbol viewBox="0 0 19 14" id="email-icon" fill="none" xmlns="http://www.w3.org/2000/svg">
      <path stroke="#222" stroke-width="1.3"
        d="M1.18 6v8M18.18 6v8M.53 13.35h18M.53 1.35h18M17.88 3.18l-8.35 6.5-8.35-6.5V1.65h16.7v1.53Z" />
    </symbol>
    <symbol viewBox="0 0 20 20" id="phone-icon" xmlns="http://www.w3.org/2000/svg">
      <g clip-path="url(#a)" fill="#000">
        <path
          d="M17.9 9.4H9.4v1.2h8.5l-2.1 2.1.9.9 3.1-3.1a.75.75 0 0 0 0-.9l-3.1-3.1-.9.9 2.1 2ZM8.1 19.4v-6.2a.65.65 0 0 0-.6-.6H3.1a1.22 1.22 0 0 0 1.2 1.2h2.5v5H3.1a1.79 1.79 0 0 1-1.9-1.7v-14a1.77 1.77 0 0 1 1.7-1.8h3.9v5H4.4a1.22 1.22 0 0 0-1.2 1.2h4.4a.65.65 0 0 0 .6-.6V.6a.86.86 0 0 0-.7-.6H3.1A3 3 0 0 0 0 2.9v13.9a2.89 2.89 0 0 0 2.9 3.1h4.6a.5.5 0 0 0 .6-.5Z" />
      </g>
        <defs>
          <clipPath id="a">
            <path fill="#fff" d="M0 0h20v20H0z" />
          </clipPath>
        </defs>
    </symbol>
  </svg>
