<svg width="33" height="33" viewBox="0 0 33 33" fill="none" xmlns="http://www.w3.org/2000/svg">
  <circle cx="21.7" cy="11.33" fill="#fff" r="1.09" />
  <circle cx="10.83" cy="11.33" fill="#fff" r="1.09" />
  <circle cx="10.83" cy="24.35" fill="#fff" r="1.09" />
  <circle cx="16.27" cy="26.52" fill="#fff" r="1.09" />
  <circle cx="7.57" cy="17.77" fill="#fff" r="1.09" />
  <circle cx="24.97" cy="17.77" fill="#fff" r="1.09" />
  <circle cx="21.7" cy="24.35" fill="#fff" r="1.09" />
  <mask id="a" fill="#fff">
    <path fill-rule="evenodd" clip-rule="evenodd"
      d="M21.42 29.06c.41-.2.9-.13 1.22.2l1.82 1.87a.68.68 0 0 0 .98-.95l-1.36-1.4c-.42-.43-.36-1.14.1-1.55a12.75 12.75 0 0 0 4.32-9.62C28.5 10.65 23.02 5 16.27 5 9.5 5 4.04 10.65 4.04 17.61c0 3.82 1.64 7.24 4.23 9.55.45.4.51 1.11.1 1.55l-1.44 1.47a.68.68 0 1 0 .97.95l1.88-1.93c.32-.33.82-.4 1.23-.2a11.88 11.88 0 0 0 10.41.06Zm-5.15-.23c6 0 10.87-5.02 10.87-11.22 0-6.19-4.87-11.2-10.87-11.2-6 0-10.88 5.01-10.88 11.2 0 6.2 4.87 11.22 10.88 11.22ZM15.5 17.3V9.94a.78.78 0 1 1 1.56 0v8.18a.8.8 0 0 1-.8.8.76.76 0 0 1-.76-.75V17.3Z" />
  </mask>
  <path fill-rule="evenodd" clip-rule="evenodd"
    d="M21.42 29.06c.41-.2.9-.13 1.22.2l1.82 1.87a.68.68 0 0 0 .98-.95l-1.36-1.4c-.42-.43-.36-1.14.1-1.55a12.75 12.75 0 0 0 4.32-9.62C28.5 10.65 23.02 5 16.27 5 9.5 5 4.04 10.65 4.04 17.61c0 3.82 1.64 7.24 4.23 9.55.45.4.51 1.11.1 1.55l-1.44 1.47a.68.68 0 1 0 .97.95l1.88-1.93c.32-.33.82-.4 1.23-.2a11.88 11.88 0 0 0 10.41.06Zm-5.15-.23c6 0 10.87-5.02 10.87-11.22 0-6.19-4.87-11.2-10.87-11.2-6 0-10.88 5.01-10.88 11.2 0 6.2 4.87 11.22 10.88 11.22ZM15.5 17.3V9.94a.78.78 0 1 1 1.56 0v8.18a.8.8 0 0 1-.8.8.76.76 0 0 1-.76-.75V17.3Z"
    fill="#fff" />
  <path fill="#fff" d="M15.5 6V2H17v4z" />
  <rect x="8.5" y="2" width="15.5" height="1.5" rx=".75" fill="#fff" />
</svg>
